<svg xmlns="http://www.w3.org/2000/svg" viewBox="0 0 202.27 158.86"><defs><style>.cls-1{fill:#9bb4e0;}.cls-2{fill:#4d9ad0;}.cls-2,.cls-3,.cls-4,.cls-6{stroke:#422724;stroke-linecap:round;stroke-linejoin:round;}.cls-3{fill:none;}.cls-4{fill:#f0c1af;}.cls-5{fill:#422724;}.cls-6{fill:#e6f9ff;}</style></defs><g id="Layer_2" data-name="Layer 2"><g id="OBJECTS"><ellipse class="cls-1" cx="102.55" cy="153.36" rx="68.5" ry="5.5"/><path class="cls-2" d="M136.93,121.24a63.17,63.17,0,0,0,7.29,22.61,16.3,16.3,0,0,1,1.77,3.93,4.59,4.59,0,0,1-.78,4.08,4.68,4.68,0,0,1-4.4,1.23,11.77,11.77,0,0,1-4.27-2.07,52.06,52.06,0,0,1-18.65-23.2"/><path class="cls-2" d="M73.49,94.92C63.2,87.41,52.14,80.42,39.7,77.64S13.12,77,3.91,85.75A11.29,11.29,0,0,0,.82,90.08a5.06,5.06,0,0,0,.82,5c1.48,1.58,4.05,1.64,6.06.85a28.19,28.19,0,0,0,5.46-3.51c8.15-5.65,19-6.2,28.59-3.75S60,96.28,68.57,101.33A43.75,43.75,0,0,0,73.49,94.92Z"/><path class="cls-2" d="M73.59,128.94c-6-4.22-10.73-9.61-11-17-.29-8.51,5-16.51,12.66-20.28S92,88,100.22,90.17s15.73,6.5,23.57,10.6c5.84-.54,11.64-1.48,18-1.76a45.38,45.38,0,0,1,.07,18.46A17.61,17.61,0,0,1,133,129.54a20.24,20.24,0,0,1-15.4,1.52c-3-.92-5.74-2.53-8.83-2.9-4.52-.54-8.84,1.66-13.21,3C88.85,133.08,78.82,132.6,73.59,128.94Z"/><path class="cls-2" d="M116.16,120.17a54.19,54.19,0,0,0-6.49,26.05c0,2.59,0,5.65-2.12,7.13a4.89,4.89,0,0,1-5,0,11,11,0,0,1-3.67-3.71,31.07,31.07,0,0,1-4-25.64"/><path class="cls-2" d="M70.3,95a23.5,23.5,0,0,0-8,13.38,25.58,25.58,0,0,0,2.44,15.83,2.85,2.85,0,0,0-3.83,1.29,4.71,4.71,0,0,0,.33,4.35,13.63,13.63,0,0,0,3,3.34L73,140.92,86.7,153a4.53,4.53,0,0,0,1.75,1.12c1.79.48,3.4-1.28,4.08-3a12.73,12.73,0,0,0-3-13.09c5.41-.55,9.83-5.17,11.29-10.41s.4-10.9-1.69-15.92c-2-4.66-5.08-9.21-9.8-11"/><path class="cls-3" d="M64.48,123.75a26.33,26.33,0,0,0,5.42,6.79"/><path class="cls-2" d="M165.38,24.11S137.16-3.26,123.94.94C118.16,2.77,111,41.1,116.73,51.47"/><path class="cls-2" d="M178.57,106.27l-1.11.23c-12.43,2.14-21.61,1.85-27.14,1.2-29.26-3.44-47.68-9.74-47.68-38.54,0-32.45,16-49.5,42-49.5,37.43,0,54.24,26.44,50,55.5-.24,1.66-.55,3.25-.9,4.78a.94.94,0,0,0,0,.16c1.47.11,4.09.67,5,3.29C201.4,91.6,193.35,103,178.57,106.27Z"/><path class="cls-2" d="M131.37,22.12s-40.84-6.48-50.06,4.51c-4,4.8,12,40.47,23.06,45.77"/><path class="cls-4" d="M85.82,31c12.44-2.41,20.75,10.17,36.73,8,4.11-.57-8.47,28.22-17,27.4C99.4,66,82,31.7,85.82,31Z"/><ellipse class="cls-5" cx="174.75" cy="82.23" rx="2.5" ry="4.38"/><path class="cls-6" d="M178.57,106.27l-1.11.23a2.58,2.58,0,0,1-.08-.26,21.17,21.17,0,0,1,16.36-26.3.94.94,0,0,0,0,.16c1.47.11,4.09.67,5,3.29C201.4,91.6,193.35,103,178.57,106.27Z"/><path class="cls-5" d="M194.83,80.26c.14-.82,2.56-1.07,4.91-.68,4.95.81,1.48,10-.72,9.17C197.92,88.35,194.63,81.42,194.83,80.26Z"/></g></g></svg>