<svg xmlns="http://www.w3.org/2000/svg" viewBox="0 0 203.61 151.37"><defs><style>.cls-1{fill:#9bb4e0;}.cls-2{fill:#4d9ad0;}.cls-2,.cls-3,.cls-5{stroke:#422724;stroke-linecap:round;stroke-linejoin:round;}.cls-3{fill:#f0c1af;}.cls-4{fill:#422724;}.cls-5{fill:#e6f9ff;}</style></defs><g id="Layer_2" data-name="Layer 2"><g id="OBJECTS"><ellipse class="cls-1" cx="106.49" cy="145.87" rx="68.5" ry="5.5"/><path class="cls-2" d="M137.33,121.52c-6.11,7.31-13.28,14.42-22.48,16.91a8.83,8.83,0,0,1-3.67.37,3.9,3.9,0,0,1-3-2c-.63-1.36-.14-3,.43-4.34a38.3,38.3,0,0,1,7-11"/><path class="cls-2" d="M79.23,127.9c-8.31-1.74-12.08-6.08-13.16-11.45s.63-11,3.39-15.73c3.43-5.87,8.68-10.85,15.11-13,5.91-2,12.46-1.6,18.42.26s11.66,5.81,17.38,9.8c8.6,1.66,16.95,2.57,25.8,4.55,1.32,7.72-2.3,15.81-8.26,20.89s-14,7.36-21.8,7.4a39.76,39.76,0,0,1-20.06-5.09C91.67,127.36,84.3,129,79.23,127.9Z"/><path class="cls-2" d="M70.55,106.12c-5.55.42-11-1.9-15.48-5.23S47,93.26,43.31,89.08s-7.52-8.33-12.26-11.24A30.6,30.6,0,0,0,6.28,74.77a10.09,10.09,0,0,0-4.39,2.39A4.43,4.43,0,0,0,.77,81.8a4.88,4.88,0,0,0,4.35,2.55,29.48,29.48,0,0,0,5.27-.62C18.26,82.7,26,86.76,32,92s10.84,11.62,16.87,16.78,13.85,9.08,21.69,7.84C70.49,113.16,70.47,109.74,70.55,106.12Z"/><path class="cls-2" d="M126,121.28a95.71,95.71,0,0,1-22.85,16.81c-1.15.61-2.47,1.21-3.71.81-1.67-.53-2.32-2.56-2.35-4.31-.1-5.57,3.41-10.51,4.82-15.9"/><path class="cls-2" d="M92.06,97.18c5.26.91,10.55,2.63,14.59,6.12s6.6,9,5.44,14.25a15.77,15.77,0,0,1-4.45,7.56,41.93,41.93,0,0,1-7,5.36,24.06,24.06,0,0,1,7.14.65,8,8,0,0,1,5.32,4.46c.86,2.24,0,5.17-2.18,6.15-1.52.67-3.27.33-4.9,0a85.51,85.51,0,0,0-18.56-1.4A24.59,24.59,0,0,1,80.6,140a7,7,0,0,1-5.13-4.17A4.78,4.78,0,0,1,78.3,130a17.73,17.73,0,0,1-10.8-25.21"/><path class="cls-2" d="M166.72,24.11S138.5-3.26,125.28.94c-5.78,1.83-12.92,40.16-7.21,50.53"/><path class="cls-2" d="M179.91,106.26l-1.11.23c-12.43,2.14-21.61,1.85-27.14,1.2C122.4,104.25,104,98,104,69.15c0-32.45,16-49.5,42-49.5,37.43,0,54.24,26.44,50,55.5-.24,1.66-.55,3.25-.9,4.78a.94.94,0,0,0,0,.16c1.47.11,4.09.67,5,3.29C202.74,91.59,194.69,103,179.91,106.26Z"/><path class="cls-2" d="M132.7,22.12s-40.84-6.48-50.06,4.51c-4,4.8,12,40.47,23.06,45.77"/><path class="cls-3" d="M87.16,31c12.44-2.41,20.75,10.17,36.73,8,4.11-.57-8.47,28.22-17,27.4C100.74,66,83.29,31.7,87.16,31Z"/><ellipse class="cls-4" cx="176.09" cy="82.23" rx="2.5" ry="4.38"/><path class="cls-5" d="M179.91,106.26l-1.11.23a2.58,2.58,0,0,1-.08-.26,21.17,21.17,0,0,1,16.36-26.3.94.94,0,0,0,0,.16c1.47.11,4.09.67,5,3.29C202.74,91.59,194.69,103,179.91,106.26Z"/><path class="cls-4" d="M196.17,80.25c.14-.82,2.56-1.07,4.91-.68,4.95.81,1.48,10-.72,9.17C199.26,88.35,196,81.42,196.17,80.25Z"/></g></g></svg>