<svg xmlns="http://www.w3.org/2000/svg" viewBox="0 0 216.31 155.66"><defs><style>.cls-1{fill:#9bb4e0;}.cls-2{fill:#4d9ad0;}.cls-2,.cls-3,.cls-5{stroke:#422724;stroke-linecap:round;stroke-linejoin:round;}.cls-3{fill:#f0c1af;}.cls-4{fill:#422724;}.cls-5{fill:#e6f9ff;}</style></defs><g id="Layer_2" data-name="Layer 2"><g id="OBJECTS"><ellipse class="cls-1" cx="124.82" cy="150.16" rx="68.5" ry="5.5"/><path class="cls-2" d="M82.77,78c-5.91,1.48-13.22,4.2-16.63,9.25s-4.56,9.46-4.56,16.89c-2.09-2.25-6-1.73-8.38.18s-3.78,4.79-5.35,7.43a46,46,0,0,1-12.66,13.8c-1.69,1.21-3.65,2.62-3.78,4.7a4.28,4.28,0,0,0,2.79,3.93,9.47,9.47,0,0,0,5.07.32,26.66,26.66,0,0,0,19.16-14.13,26.21,26.21,0,0,0,24.46-3.14"/><path class="cls-2" d="M78.47,79.52c-12.43-5.89-25.25-11.88-39-12.7-10.83-.65-21.66,2-31.65,6.24A14.74,14.74,0,0,0,2,76.83C.5,78.64-.09,81.4,1.24,83.33a5.49,5.49,0,0,0,4.48,2.11,13.52,13.52,0,0,0,5-1.16c4.09-1.59,8-3.66,12.15-5.06C31.12,76.44,40.13,76.4,48.71,78s16.81,4.65,24.87,8C73.61,86,73.64,86,78.47,79.52Z"/><path class="cls-2" d="M153.11,105.84,173.3,134c1.49,2.08,3,4.29,3.32,6.88s-1.17,5.65-3.73,6.21c-1.9.42-3.73-.6-5.34-1.62a124.83,124.83,0,0,1-28.63-25"/><path class="cls-2" d="M136.44,94.63c-24,5.49-50-28.83-63.18-14.69-10.33,11.12-6.05,25.7,6,35.68C103.84,136,164.79,139.27,156.37,104,150.39,102.37,141.66,98.1,136.44,94.63Z"/><path class="cls-2" d="M78.32,76.84C72.56,79,69.74,82.7,67.68,87.48a21.23,21.23,0,0,0-.54,15.25c-.24-2-2.9-3-4.69-2.07a5.64,5.64,0,0,0-2.66,5,23.39,23.39,0,0,0,1.11,5.88,37.4,37.4,0,0,1-.24,18.91c-.82,3-2,6.41-.23,9,1.89,2.81,6.25,2.74,9.13,1a14.63,14.63,0,0,0,6-8.38c1-3.36,1.13-6.92,1.44-9.66a16.08,16.08,0,0,0,25.49-15.65"/><path class="cls-2" d="M117.75,118a24.85,24.85,0,0,0-5.47,2.76,8.53,8.53,0,0,0-3.49,4.89c-.73,3.33,1.26,6.61,3.28,9.36,4.8,6.54,10.55,12.76,18,15.87,1.86.77,4.09,1.31,5.8.26a4.82,4.82,0,0,0,2.06-3.79,12.2,12.2,0,0,0-.7-4.39,61.92,61.92,0,0,0-6.18-14"/><path class="cls-2" d="M179.42,24.11S151.2-3.26,138,.94c-5.78,1.83-12.92,40.16-7.21,50.53"/><path class="cls-2" d="M192.61,106.27l-1.11.23c-12.43,2.14-21.61,1.85-27.14,1.2-29.26-3.44-47.68-9.74-47.68-38.54,0-32.45,16-49.5,42-49.5,37.43,0,54.24,26.44,50,55.5-.24,1.66-.55,3.25-.9,4.78a.94.94,0,0,0,0,.16c1.47.11,4.09.67,5,3.29C215.44,91.6,207.39,103,192.61,106.27Z"/><path class="cls-2" d="M145.41,22.12s-40.84-6.48-50.06,4.51c-4,4.8,12,40.47,23.06,45.77"/><path class="cls-3" d="M99.86,31c12.44-2.41,20.75,10.17,36.73,8,4.11-.57-8.47,28.22-17,27.4C113.44,66,96,31.7,99.86,31Z"/><ellipse class="cls-4" cx="188.79" cy="82.24" rx="2.5" ry="4.38"/><path class="cls-5" d="M192.61,106.27l-1.11.23a2.58,2.58,0,0,1-.08-.26,21.17,21.17,0,0,1,16.36-26.3.94.94,0,0,0,0,.16c1.47.11,4.09.67,5,3.29C215.44,91.6,207.39,103,192.61,106.27Z"/><path class="cls-4" d="M208.87,80.26c.14-.82,2.56-1.07,4.91-.68,4.95.81,1.48,10-.72,9.17C212,88.35,208.67,81.43,208.87,80.26Z"/></g></g></svg>