<svg xmlns="http://www.w3.org/2000/svg" viewBox="0 0 213.1 160.13">
  <defs>
    <style>.cls-1{fill:#9bb4e0;}.cls-2{fill:#4d9ad0;}.cls-2,.cls-3,.cls-5{stroke:#422724;stroke-linecap:round;stroke-linejoin:round;}.cls-3{fill:#f0c1af;}.cls-4{fill:#422724;}.cls-5{fill:#e6f9ff;}</style>
  </defs>
  <g id="Layer_2" data-name="Layer 2">
    <g id="OBJECTS">
      <ellipse class="cls-1" cx="111" cy="154.63" rx="68.5" ry="5.5"/>
      <path class="cls-2" d="M144,117.7c5.85,5,14.11,6,21.83,6.22s15.73-.21,22.85,2.79c1.63.69,3.34,1.56,5.07,1.19,2.16-.46,3.5-2.85,3.38-5.05a9.8,9.8,0,0,0-2.86-5.82,28,28,0,0,0-12.9-7.62A71.12,71.12,0,0,0,166.88,107l-13.65-2.51"/>
      <path class="cls-2" d="M47.64,123.55a28,28,0,0,0-5-2.38A7.67,7.67,0,0,0,35,122.61a58,58,0,0,1-19.62,10.94c-2.81,1-5.82,1.83-7.65,4.36a4.92,4.92,0,0,0-.85,4.26c.75,2.47,3.22,3.09,5.44,3.28A27.09,27.09,0,0,0,26.07,143"/>
      <path class="cls-2" d="M137.05,99.32c-8.62.09-17.2-1-25.82-1.4s-17.41-.08-25.56,2.72S70,109,66.43,116.84c-1.63,3.56-2.39,7.74-.92,11.37,1.62,4,5.58,6.52,9.56,8.18,12.63,5.25,27,4.14,40.43,1.81,9.6-1.66,19.32-4,27.51-9.24s14.69-14,15-23.75A36.27,36.27,0,0,1,137.05,99.32Z"/>
      <path class="cls-2" d="M77.06,107.12a81.32,81.32,0,0,1-66-22.6c-2-2-4.54-4.28-7.26-3.52a5,5,0,0,0-3.3,4.54,10.43,10.43,0,0,0,1.6,5.68c4.34,7.82,12.63,12.61,21,15.92a101,101,0,0,0,49.17,6.55A18,18,0,0,1,77.06,107.12Z"/>
      <path class="cls-2" d="M88.54,99.77c-12.39,3-22,10.29-30.49,19.23a6.41,6.41,0,0,1-5.8,1.9,18.21,18.21,0,0,0-2.73-.29,6.38,6.38,0,0,0-4.74,1.9,132.92,132.92,0,0,1-25.67,20,4.77,4.77,0,0,0-2.05,2.34c-1,2.61,1,4.11,3,4.83,5.84,2.16,12.38,0,17.89-2.91s10.81-6.58,17-7.65,12.69.68,19,1.25,13.64-.54,17.41-5.7"/>
      <path class="cls-2" d="M141.47,110.72a38.37,38.37,0,0,0,14.83,8.19c3.85,1.11,7.87,1.61,11.67,2.92s7.48,3.6,9.25,7.2c1.19,2.43,1.13,5.87-1.16,7.31-2.12,1.34-4.85.31-7.28-.3-8.13-2-16.69,1.3-25,.35a24.88,24.88,0,0,1-15.8-8.32"/>
      <path class="cls-2" d="M176.22,24.11S148-3.26,134.78.94C129,2.77,121.86,41.1,127.57,51.47"/>
      <path class="cls-2" d="M189.41,106.26l-1.11.23c-12.43,2.14-21.61,1.85-27.14,1.2-29.26-3.44-47.68-9.74-47.68-38.54,0-32.45,16-49.5,42-49.5,37.43,0,54.24,26.44,50,55.5-.24,1.66-.55,3.25-.9,4.78a.94.94,0,0,0,0,.16c1.47.11,4.09.67,5,3.29C212.24,91.59,204.19,103,189.41,106.26Z"/>
      <path class="cls-2" d="M142.21,22.12s-40.84-6.48-50.06,4.51c-4,4.8,12,40.47,23.06,45.77"/>
      <path class="cls-3" d="M96.67,31c12.44-2.41,20.75,10.17,36.73,8,4.11-.57-8.47,28.22-17,27.4C110.25,66,92.79,31.7,96.67,31Z"/>
      <ellipse class="cls-4" cx="185.6" cy="82.23" rx="2.5" ry="4.38"/>
      <path class="cls-5" d="M189.41,106.26l-1.11.23a2.58,2.58,0,0,1-.08-.26,21.17,21.17,0,0,1,16.36-26.3.94.94,0,0,0,0,.16c1.47.11,4.09.67,5,3.29C212.24,91.59,204.19,103,189.41,106.26Z"/>
      <path class="cls-4" d="M205.67,80.26c.14-.82,2.56-1.07,4.91-.68,4.95.81,1.48,10-.72,9.17C208.77,88.35,205.48,81.42,205.67,80.26Z"/>
    </g>
  </g>
</svg>