<svg xmlns="http://www.w3.org/2000/svg" viewBox="0 0 207.4 156.17">
  <defs>
    <style>.cls-1{fill:#9bb4e0;}.cls-2{fill:#4d9ad0;}.cls-2,.cls-3,.cls-5{stroke:#422724;stroke-linecap:round;stroke-linejoin:round;}.cls-3{fill:#f0c1af;}.cls-4{fill:#422724;}.cls-5{fill:#e6f9ff;}</style>
  </defs>
  <g id="Layer_2" data-name="Layer 2">
    <g id="OBJECTS">
      <ellipse class="cls-1" cx="107.19" cy="150.67" rx="68.5" ry="5.5"/>
      <path class="cls-2" d="M125.82,132.44l-4.27,13.72c-.49,1.58-1.09,3.3-2.53,4.16-1.89,1.14-4.51.21-5.89-1.48a12.07,12.07,0,0,1-2.14-6.08,51.5,51.5,0,0,1-.42-13.18"/>
      <path class="cls-2" d="M68.07,124.89c-3.66-8.12,0-20,6.25-26.35s15.43-7.8,24.1-5.77c4.44,1,8.56,3.21,13,4.1s9.76.13,12-3.29c10.63,2.51,21.26,5,31.11,8.45-1,10.84-4.85,21-13.26,28.24-15.55,13.39-33.71,4.77-37,4.26C92.29,132.67,72.3,134.29,68.07,124.89Z"/>
      <path class="cls-2" d="M71.07,118.29c-6,0-11.14-4.64-14.26-9.8s-5-11.06-8.37-16A34.29,34.29,0,0,0,32.2,80a45.41,45.41,0,0,0-20.46-2.44c-3.2.32-6.53,1-9,3.06A6,6,0,0,0,.59,83.86a3.59,3.59,0,0,0,1.15,3.58c1.31,1,3.14.71,4.77.46C19,86,32.7,89.32,41,98.74c3.46,3.91,5.84,8.62,8.29,13.23s5,9.24,8.81,12.85,8.94,6.09,14.12,5.49A39.27,39.27,0,0,1,71.07,118.29Z"/>
      <path class="cls-2" d="M70.29,104.27a28.78,28.78,0,0,0,1.92,31.55,17.71,17.71,0,0,0-4.38,4.68,6,6,0,0,0-.16,6.12c1.57,2.39,4.91,2.69,7.77,2.67,10.11,0,20.57-.92,30,2.75,1.77.69,3.64,1.54,5.48,1.07,2.43-.63,3.74-3.59,3.1-6a8.14,8.14,0,0,0-5.09-5.16c-2.33-.92-4.89-1.07-7.42-1.78,5.21-.86,9.53-5.11,11.09-10.15a19.28,19.28,0,0,0-2.14-15.23,28.63,28.63,0,0,0-11.57-10.51"/>
      <path class="cls-2" d="M138.08,119.94a64.65,64.65,0,0,0,3.83,24.42c.68,1.87,1.43,4,.47,5.74a4.7,4.7,0,0,1-4.18,2.08,9.83,9.83,0,0,1-6.45-2.75,21.82,21.82,0,0,1-4.23-5.75A57.91,57.91,0,0,1,121,124.35"/>
      <path class="cls-2" d="M170.51,24.11S142.29-3.26,129.07.94c-5.78,1.83-12.92,40.16-7.21,50.53"/>
      <path class="cls-2" d="M183.7,106.27l-1.11.23c-12.43,2.14-21.61,1.85-27.14,1.2-29.26-3.44-47.68-9.74-47.68-38.54,0-32.45,16-49.5,42-49.5,37.43,0,54.24,26.44,50,55.5-.24,1.66-.55,3.25-.9,4.78a.94.94,0,0,0,0,.16c1.47.11,4.09.67,5,3.29C206.53,91.6,198.48,103,183.7,106.27Z"/>
      <path class="cls-2" d="M136.5,22.13s-40.84-6.48-50.06,4.51c-4,4.8,12,40.47,23.06,45.77"/>
      <path class="cls-3" d="M91,31c12.44-2.41,20.75,10.17,36.73,8,4.11-.57-8.47,28.22-17,27.4C104.54,66,87.08,31.71,91,31Z"/>
      <ellipse class="cls-4" cx="179.89" cy="82.24" rx="2.5" ry="4.38"/>
      <path class="cls-5" d="M183.7,106.27l-1.11.23a2.58,2.58,0,0,1-.08-.26,21.17,21.17,0,0,1,16.36-26.3.94.94,0,0,0,0,.16c1.47.11,4.09.67,5,3.29C206.53,91.6,198.48,103,183.7,106.27Z"/>
      <path class="cls-4" d="M200,80.26c.14-.82,2.56-1.07,4.91-.68,4.95.81,1.48,10-.72,9.17C203.06,88.35,199.77,81.43,200,80.26Z"/>
    </g>
  </g>
</svg>